# xmcd CD database file
#
# Track frame offsets:
#	182
#	23922
#	56652
#	89850
#	114005
#	128765
#	142302
#	173677
#	195552
#
# Disc length: 3119 seconds
#
# Revision: 0
# Processed by: cddbd v1.4PL0 Copyright (c) Steve Scherf et al.
# Submitted via: CDex 1.50Beta7
#
DISCID=7c0c2d09
DTITLE=Daniel Perrin&Thierry Lang - Tusitala
DYEAR=1996
DGENRE=Jazz
TTITLE0=yellow story
TTITLE1=cadavre exquis
TTITLE2=six huitres
TTITLE3=vertigem de trapezista
TTITLE4=tusitala
TTITLE5=xxx
TTITLE6=sun, rain and sun
TTITLE7=quoique
TTITLE8=dark
EXTD=YEAR: 1996
EXTT0=
EXTT1=
EXTT2=
EXTT3=
EXTT4=
EXTT5=
EXTT6=
EXTT7=
EXTT8=
PLAYORDER=
